<svg width="99" height="99" viewBox="0 0 99 99" fill="none" xmlns="http://www.w3.org/2000/svg">
<circle cx="49.5" cy="49.5" r="49.5" fill="white"/>
<path d="M49 23.1198C63.728 23.1198 75.6667 35.0585 75.6667 49.7865C75.6667 64.5145 63.728 76.4531 49 76.4531C34.272 76.4531 22.3334 64.5145 22.3334 49.7865C22.3334 35.0585 34.272 23.1198 49 23.1198ZM49 28.4531C43.3421 28.4531 37.9159 30.7008 33.9151 34.7015C29.9143 38.7023 27.6667 44.1285 27.6667 49.7865C27.6667 55.4444 29.9143 60.8706 33.9151 64.8714C37.9159 68.8722 43.3421 71.1198 49 71.1198C54.658 71.1198 60.0842 68.8722 64.085 64.8714C68.0858 60.8706 70.3334 55.4444 70.3334 49.7865C70.3334 44.1285 68.0858 38.7023 64.085 34.7015C60.0842 30.7008 54.658 28.4531 49 28.4531ZM49 33.7865C49.6532 33.7866 50.2836 34.0264 50.7717 34.4604C51.2598 34.8944 51.5716 35.4925 51.648 36.1411L51.6667 36.4531V48.6825L58.8854 55.9011C59.3636 56.381 59.6413 57.025 59.662 57.7022C59.6827 58.3794 59.4448 59.039 58.9967 59.5472C58.5486 60.0554 57.9239 60.374 57.2494 60.4382C56.575 60.5025 55.9013 60.3076 55.3654 59.8931L55.1147 59.6718L47.1147 51.6718C46.7003 51.257 46.4341 50.7171 46.3574 50.1358L46.3334 49.7865V36.4531C46.3334 35.7459 46.6143 35.0676 47.1144 34.5675C47.6145 34.0674 48.2928 33.7865 49 33.7865Z" fill="black"/>
</svg>
