<svg width="99" height="99" viewBox="0 0 99 99" fill="none" xmlns="http://www.w3.org/2000/svg">
<circle cx="49.5" cy="49.5" r="49.5" fill="white"/>
<path fill-rule="evenodd" clip-rule="evenodd" d="M43.7535 25.7604H46.2048C49.2235 25.7604 51.6593 25.7604 53.574 26.0188C55.5615 26.2838 57.2354 26.858 58.5648 28.1852C59.8942 29.5146 60.464 31.1885 60.7334 33.176C60.9895 35.0906 60.9895 37.5264 60.9895 40.5452V58.8854H62.8026C65.4614 58.8854 67.6145 61.0386 67.6145 63.6974V63.8542C67.6145 64.2934 67.789 64.7147 68.0996 65.0253C68.4103 65.3359 68.8315 65.5104 69.2708 65.5104C69.7101 65.5104 70.1313 65.3359 70.4419 65.0253C70.7525 64.7147 70.927 64.2934 70.927 63.8542V55.1092L67.6985 54.0337C66.7095 53.7038 65.8494 53.0712 65.2398 52.2255C64.6303 51.3797 64.3022 50.3637 64.302 49.3211V43.9792C64.302 42.6614 64.8255 41.3976 65.7574 40.4657C66.6892 39.5339 67.953 39.0104 69.2708 39.0104H70.9094C70.8012 37.7506 70.2168 36.5794 69.2752 35.7355C69.1045 35.5875 68.9299 35.4439 68.7518 35.3049L66.029 33.1274C65.8561 32.9927 65.7117 32.825 65.6041 32.6341C65.4965 32.4432 65.4279 32.2328 65.4022 32.0151C65.3765 31.7975 65.3943 31.5769 65.4545 31.3661C65.5147 31.1554 65.6161 30.9587 65.7528 30.7875C65.8896 30.6162 66.059 30.4738 66.2512 30.3685C66.4434 30.2632 66.6546 30.1971 66.8726 30.174C67.0905 30.1509 67.3109 30.1713 67.5209 30.234C67.7309 30.2967 67.9263 30.4005 68.096 30.5393L70.8564 32.7476C71.1258 32.964 71.3113 33.112 71.4857 33.2688C73.1179 34.7318 74.1034 36.7823 74.2263 38.9707C74.2395 39.2026 74.2395 39.4411 74.2395 39.7878V63.8542C74.2395 65.172 73.716 66.4358 72.7842 67.3676C71.8524 68.2994 70.5886 68.8229 69.2708 68.8229C67.953 68.8229 66.6892 68.2994 65.7574 67.3676C64.8255 66.4358 64.302 65.172 64.302 63.8542V63.6974C64.3015 63.2999 64.1433 62.9188 63.8622 62.6378C63.5811 62.3567 63.2001 62.1985 62.8026 62.1979H60.9895V69.9271H61.5416C61.9809 69.9271 62.4022 70.1016 62.7128 70.4122C63.0234 70.7228 63.1979 71.1441 63.1979 71.5834C63.1979 72.0226 63.0234 72.4439 62.7128 72.7545C62.4022 73.0651 61.9809 73.2396 61.5416 73.2396H28.4166C27.9774 73.2396 27.5561 73.0651 27.2455 72.7545C26.9349 72.4439 26.7604 72.0226 26.7604 71.5834C26.7604 71.1441 26.9349 70.7228 27.2455 70.4122C27.5561 70.1016 27.9774 69.9271 28.4166 69.9271H28.9687V40.5452C28.9687 37.5264 28.9687 35.0906 29.2271 33.176C29.4921 31.1885 30.0663 29.5146 31.3935 28.1852C32.7229 26.8558 34.3968 26.286 36.3843 26.0188C38.2989 25.7604 40.7347 25.7604 43.7535 25.7604ZM32.2812 69.9271H57.677V40.6667C57.677 37.4977 57.6726 35.285 57.4496 33.6177C57.231 31.9968 56.8312 31.1399 56.2217 30.5282C55.61 29.9165 54.7532 29.519 53.1301 29.3004C51.4628 29.0774 49.2523 29.0729 46.0833 29.0729H43.875C40.706 29.0729 38.4933 29.0774 36.826 29.3004C35.205 29.519 34.3482 29.9187 33.7365 30.5282C33.1248 31.1399 32.7273 31.9968 32.5087 33.6199C32.2856 35.2828 32.2812 37.4955 32.2812 40.6667V69.9271ZM70.927 51.62V42.3229H69.2708C68.8315 42.3229 68.4103 42.4974 68.0996 42.808C67.789 43.1186 67.6145 43.5399 67.6145 43.9792V49.3211C67.6145 50.0344 68.0717 50.6682 68.7474 50.8913L70.927 51.62ZM45.8315 43.6612C46.2081 43.8873 46.4795 44.2537 46.5859 44.6798C46.6923 45.106 46.6251 45.557 46.3991 45.9336L44.5927 48.9457H48.2916C48.5847 48.9457 48.8726 49.0236 49.1258 49.1712C49.379 49.3188 49.5885 49.531 49.7329 49.7861C49.8773 50.0412 49.9514 50.3301 49.9476 50.6231C49.9439 50.9162 49.8624 51.2031 49.7116 51.4544L46.3991 56.9752C46.2883 57.164 46.1412 57.3289 45.9663 57.4605C45.7913 57.5921 45.5921 57.6877 45.38 57.7417C45.1679 57.7958 44.9472 57.8073 44.7306 57.7756C44.514 57.7439 44.3059 57.6695 44.1182 57.5569C43.9306 57.4442 43.7671 57.2955 43.6373 57.1193C43.5074 56.9431 43.4138 56.7429 43.3618 56.5302C43.3099 56.3176 43.3005 56.0968 43.3344 55.8806C43.3683 55.6643 43.4447 55.4569 43.5592 55.2704L45.3656 52.2582H41.6666C41.3735 52.2582 41.0857 52.1804 40.8324 52.0328C40.5792 51.8851 40.3697 51.6729 40.2253 51.4178C40.081 51.1627 40.0069 50.8739 40.0106 50.5808C40.0144 50.2877 40.0958 50.0009 40.2467 49.7496L43.5592 44.2287C43.7853 43.8521 44.1517 43.5808 44.5778 43.4744C45.004 43.3679 45.4549 43.4351 45.8315 43.6612Z" fill="black"/>
</svg>
