<svg width="99" height="99" viewBox="0 0 99 99" fill="none" xmlns="http://www.w3.org/2000/svg">
<circle cx="49.5" cy="49.5" r="49.5" fill="white"/>
<path d="M62.75 42.1604V31.4354C62.75 29.4583 61.125 27.8333 59.1479 27.8333H54.625V22.4167H38.375V27.8333H33.8521C31.875 27.8333 30.25 29.4583 30.25 31.4354V72.9813C30.25 74.9583 31.875 76.5833 33.8521 76.5833H47.6104C50.4542 78.2896 53.7854 79.2917 57.3333 79.2917C67.8146 79.2917 76.2917 70.8146 76.2917 60.3333C76.2917 51.7479 70.5771 44.4896 62.75 42.1604ZM35.6667 33.25H57.3333V41.375C46.8521 41.375 38.375 49.8521 38.375 60.3333C38.375 64.3958 39.6479 68.1063 41.7875 71.1667H35.6667V33.25ZM57.3333 73.875C49.8583 73.875 43.7917 67.8083 43.7917 60.3333C43.7917 52.8583 49.8583 46.7917 57.3333 46.7917C64.8083 46.7917 70.875 52.8583 70.875 60.3333C70.875 67.8083 64.8083 73.875 57.3333 73.875ZM58.6875 61.0104L66.4333 65.5875L64.4021 68.8917L54.625 63.0417V49.5H58.6875V61.0104Z" fill="black"/>
</svg>
