<?xml version="1.0" standalone="no"?>
<!DOCTYPE svg PUBLIC "-//W3C//DTD SVG 20010904//EN"
 "http://www.w3.org/TR/2001/REC-SVG-20010904/DTD/svg10.dtd">
<svg version="1.0" xmlns="http://www.w3.org/2000/svg"
 width="1076.000000pt" height="352.000000pt" viewBox="0 0 1076.000000 352.000000"
 preserveAspectRatio="xMidYMid meet">

<g transform="translate(0.000000,352.000000) scale(0.100000,-0.100000)"
fill="#000000" stroke="none">
<path d="M469 3491 l-29 -29 0 -892 0 -892 30 -30 c26 -25 36 -29 63 -24 18 4
41 15 52 27 19 19 20 35 23 444 l3 425 400 0 401 0 29 29 c37 37 37 65 0 102
l-29 29 -401 0 -401 0 0 340 0 340 465 0 466 0 24 25 c33 32 33 75 -1 109
l-27 26 -519 0 -520 0 -29 -29z"/>
<path d="M7841 3426 c-49 -27 -66 -107 -36 -166 28 -53 132 -63 182 -17 48 44
38 154 -17 182 -36 18 -97 19 -129 1z"/>
<path d="M8542 3357 c-21 -22 -22 -33 -22 -190 l0 -167 -115 0 c-110 0 -117
-1 -140 -25 -14 -13 -25 -36 -25 -50 0 -14 11 -37 25 -50 23 -24 30 -25 140
-25 l115 0 0 -503 c0 -562 1 -575 66 -647 48 -53 109 -75 209 -75 92 0 136 20
156 68 10 24 9 32 -8 55 -20 26 -24 27 -100 24 -74 -4 -81 -2 -111 23 -17 14
-36 43 -42 63 -6 23 -10 220 -10 515 l0 477 149 0 c130 0 152 2 172 19 17 13
23 29 23 56 0 27 -6 43 -23 56 -20 17 -42 19 -172 19 l-149 0 0 164 c0 150 -2
165 -21 190 -27 35 -86 36 -117 3z"/>
<path d="M2335 3030 c-125 -27 -239 -93 -331 -192 -72 -78 -116 -150 -149
-249 -48 -140 -56 -342 -20 -485 47 -184 183 -355 345 -432 108 -51 203 -72
331 -72 121 0 200 18 289 67 122 66 240 177 240 225 0 37 -32 68 -71 68 -24 0
-45 -15 -102 -68 -111 -105 -202 -141 -357 -142 -213 0 -386 102 -474 280 -37
76 -66 185 -66 253 l0 37 526 0 c323 0 532 4 544 10 30 16 39 61 29 140 -19
154 -69 267 -162 367 -120 128 -259 191 -437 198 -52 2 -113 0 -135 -5z m295
-184 c154 -63 259 -197 272 -346 l3 -35 -463 -3 -462 -2 6 27 c42 176 159 314
310 369 95 34 236 30 334 -10z"/>
<path d="M3975 3030 c-118 -24 -237 -92 -327 -187 l-56 -60 -4 85 c-3 77 -5
86 -31 108 -36 30 -68 30 -104 0 l-28 -24 -3 -625 c-1 -389 1 -634 7 -650 26
-68 111 -72 143 -7 16 32 18 75 18 462 0 509 -2 498 109 609 111 110 248 160
395 144 134 -14 227 -85 277 -212 23 -57 24 -66 29 -531 l5 -474 28 -24 c15
-13 35 -24 43 -24 24 0 71 28 78 45 3 9 6 225 6 479 0 431 -1 468 -20 542 -11
43 -31 102 -45 130 -29 58 -112 142 -173 173 -87 44 -239 62 -347 41z"/>
<path d="M5407 3024 c-100 -24 -214 -90 -292 -170 -144 -146 -205 -307 -205
-547 0 -328 166 -573 459 -675 69 -24 90 -26 226 -27 131 0 158 3 216 23 122
42 308 187 324 252 9 37 -27 80 -67 80 -24 0 -46 -14 -99 -65 -109 -103 -213
-145 -355 -145 -107 0 -172 14 -259 55 -159 76 -276 261 -286 457 l-3 53 533
5 533 5 20 25 c18 22 20 34 15 100 -12 159 -75 298 -183 406 -148 149 -378
216 -577 168z m264 -160 c182 -53 306 -189 326 -356 l6 -48 -463 0 -462 0 7
38 c20 110 127 263 222 319 104 61 252 80 364 47z"/>
<path d="M6425 3010 c-51 -25 -75 -65 -75 -123 0 -37 7 -55 37 -94 69 -91 307
-398 339 -438 l33 -41 -190 -244 c-105 -135 -198 -258 -206 -274 -40 -76 23
-176 111 -176 25 0 57 5 72 12 16 7 98 106 201 240 l175 227 22 -27 c12 -15
91 -116 175 -225 86 -110 165 -204 181 -212 98 -51 216 33 196 138 -4 23 -64
109 -187 268 -100 129 -189 246 -199 260 l-19 25 57 75 c32 41 122 158 200
262 138 182 142 189 142 236 0 122 -145 172 -227 78 -15 -18 -95 -123 -178
-234 -82 -111 -153 -202 -156 -203 -3 0 -85 102 -182 228 -96 125 -184 232
-195 239 -39 23 -85 25 -127 3z m941 -115 c-9 -24 -348 -466 -353 -461 -5 4
346 476 354 476 3 0 2 -7 -1 -15z m-697 -222 c95 -124 174 -231 175 -237 0 -6
-2 -13 -5 -16 -7 -5 -369 457 -369 471 0 31 45 -18 199 -218z m540 -700 c94
-122 171 -225 171 -228 0 -4 -6 -5 -14 -3 -22 5 -368 456 -360 469 9 15 3 21
203 -238z m-369 228 c0 -6 -273 -370 -346 -460 -1 -1 -8 -1 -13 0 -9 3 344
469 355 469 2 0 4 -4 4 -9z"/>
<path d="M7851 3011 c-11 -11 -23 -35 -26 -53 -3 -18 -5 -315 -3 -660 l3 -627
22 -23 c30 -30 86 -30 116 0 l22 23 3 648 2 649 -26 31 c-31 37 -82 43 -113
12z"/>
<path d="M9352 3007 c-22 -23 -22 -24 -22 -509 0 -450 1 -490 20 -562 25 -99
61 -165 120 -220 89 -83 182 -116 330 -116 173 0 290 47 409 167 l74 74 -6
-108 c-7 -120 -24 -190 -69 -275 -93 -176 -323 -266 -544 -213 -33 8 -96 30
-139 49 -86 40 -116 44 -140 19 -76 -76 6 -161 202 -209 104 -25 300 -25 392
0 215 59 371 214 438 436 15 49 17 135 20 748 l4 692 -25 25 c-30 30 -74 33
-107 6 l-24 -19 -5 -464 -5 -463 -32 -66 c-42 -85 -129 -169 -220 -211 -56
-27 -83 -33 -156 -36 -206 -10 -319 68 -362 250 -12 51 -15 152 -15 521 l0
458 -25 24 c-32 33 -83 34 -113 2z"/>
<path d="M7692 768 c-17 -17 -17 -569 0 -586 21 -21 57 -14 63 11 3 12 4 148
3 302 l-3 280 -25 3 c-14 2 -31 -3 -38 -10z"/>
<path d="M8965 767 c-3 -7 -4 -142 -3 -301 3 -262 5 -290 21 -300 22 -14 49 2
57 35 4 16 8 20 14 11 14 -23 85 -52 126 -52 57 0 99 20 142 68 113 125 55
346 -101 381 -24 5 -49 8 -55 6 -6 -2 -23 -6 -38 -9 -14 -3 -40 -18 -57 -32
l-31 -26 0 104 c0 68 -4 108 -12 116 -16 16 -57 15 -63 -1z m282 -259 c52 -47
67 -130 37 -194 -25 -52 -59 -74 -114 -74 -80 0 -130 57 -130 147 0 94 63 159
143 149 22 -2 50 -15 64 -28z"/>
<path d="M9682 768 c-9 -9 -12 -88 -12 -293 0 -205 3 -284 12 -293 18 -18 56
-14 68 7 6 12 10 122 10 286 0 164 -4 274 -10 286 -12 21 -50 25 -68 7z"/>
<path d="M11 736 c-8 -9 -11 -92 -9 -281 3 -242 5 -269 21 -279 12 -8 22 -8
35 0 15 10 18 35 22 210 l5 198 83 -128 c69 -107 86 -127 105 -124 16 2 45 37
102 122 l80 118 3 -188 c3 -195 7 -214 46 -214 44 0 46 10 46 291 0 224 -2
269 -15 279 -32 27 -59 2 -159 -150 -54 -82 -100 -150 -101 -150 -2 0 -49 70
-104 155 -83 127 -106 155 -125 155 -13 0 -29 -6 -35 -14z"/>
<path d="M2727 744 c-4 -4 -7 -20 -7 -35 0 -37 32 -56 67 -40 20 9 24 17 21
44 -3 29 -7 32 -38 35 -20 2 -39 0 -43 -4z"/>
<path d="M4192 738 c-19 -19 -17 -541 2 -557 9 -8 66 -11 182 -9 l169 3 3 24
c6 43 -19 51 -155 51 l-123 0 0 90 0 90 115 0 c104 0 115 2 125 20 8 15 6 24
-10 40 -18 18 -33 20 -125 20 l-105 0 0 80 0 79 131 3 c113 3 133 6 143 21 8
12 8 22 0 35 -10 15 -32 17 -175 20 -120 2 -168 -1 -177 -10z"/>
<path d="M7220 731 c-15 -29 -14 -533 2 -549 15 -15 51 -15 66 0 8 8 12 50 12
125 l0 113 101 0 c106 0 139 9 139 38 0 35 -21 42 -132 42 l-108 0 0 85 0 84
131 3 c113 3 133 6 143 21 8 12 8 22 0 35 -10 15 -32 17 -177 20 -156 2 -167
1 -177 -17z"/>
<path d="M8767 744 c-4 -4 -7 -20 -7 -35 0 -36 28 -53 65 -39 22 8 26 15 23
42 -3 30 -7 33 -38 36 -20 2 -39 0 -43 -4z"/>
<path d="M9477 743 c-4 -3 -7 -21 -7 -39 0 -36 25 -49 66 -34 24 9 30 32 18
64 -6 16 -64 23 -77 9z"/>
<path d="M9877 744 c-4 -4 -7 -20 -7 -35 0 -37 32 -56 67 -40 20 9 24 17 21
44 -3 29 -7 32 -38 35 -20 2 -39 0 -43 -4z"/>
<path d="M10128 699 c-13 -7 -18 -23 -18 -54 0 -43 0 -44 -37 -47 -32 -2 -39
-7 -41 -27 -4 -28 20 -51 54 -51 22 0 23 -2 26 -151 l3 -151 28 -24 c46 -40
147 -29 147 16 0 24 -18 35 -52 31 -40 -4 -48 23 -48 158 l0 121 36 0 c44 0
74 15 74 38 0 29 -21 42 -67 42 l-43 0 0 43 c0 60 -22 80 -62 56z"/>
<path d="M819 611 c-58 -12 -103 -46 -134 -103 -48 -89 -36 -217 28 -287 65
-70 189 -80 253 -20 21 19 21 19 32 -6 14 -31 56 -34 72 -6 13 26 13 376 0
402 -15 28 -58 25 -71 -5 l-11 -24 -36 24 c-19 13 -43 24 -53 24 -9 0 -23 2
-31 4 -7 2 -29 1 -49 -3z m109 -91 c45 -28 76 -98 68 -152 -14 -85 -58 -128
-130 -128 -79 0 -130 57 -130 145 1 120 101 190 192 135z"/>
<path d="M1383 610 c-18 -4 -48 -19 -67 -34 -34 -25 -35 -25 -41 -6 -10 31
-38 42 -63 24 -21 -15 -22 -22 -22 -200 0 -109 4 -193 10 -205 14 -25 56 -25
70 0 5 11 10 78 10 150 0 124 1 131 25 159 44 52 130 54 163 4 13 -20 18 -58
22 -176 l5 -151 26 -3 c46 -5 51 13 47 185 -3 127 -7 164 -21 190 -27 51 -98
78 -164 63z"/>
<path d="M1830 610 c-108 -19 -182 -132 -165 -254 11 -85 51 -144 122 -180 58
-29 157 -15 192 28 13 15 15 15 25 -6 15 -29 55 -36 73 -12 16 22 19 375 3
405 -15 28 -58 25 -72 -5 -11 -25 -11 -25 -37 -6 -33 25 -96 38 -141 30z m107
-90 c90 -55 89 -227 -2 -268 -61 -28 -142 -5 -170 47 -27 53 -29 104 -7 154
35 79 112 108 179 67z"/>
<path d="M2350 610 c-159 -29 -226 -244 -117 -376 71 -86 203 -98 276 -25 l21
21 0 -41 c0 -33 -6 -47 -34 -75 -29 -29 -41 -34 -83 -34 -28 0 -71 6 -97 14
-52 16 -71 13 -80 -11 -10 -25 23 -52 83 -69 108 -32 224 3 268 81 22 39 23
47 20 275 l-2 235 -23 3 c-29 4 -52 -14 -52 -41 l0 -20 -22 20 c-44 40 -97 55
-158 43z m106 -86 c55 -26 77 -73 72 -151 -4 -60 -7 -68 -41 -99 -30 -28 -44
-34 -82 -34 -62 0 -101 22 -126 72 -40 79 -13 173 62 210 42 22 71 23 115 2z"/>
<path d="M3115 610 c-37 -8 -68 -24 -85 -44 -17 -22 -30 -20 -30 4 0 34 -52
46 -72 16 -4 -6 -8 -97 -8 -202 0 -206 3 -219 52 -212 23 3 23 6 28 148 6 159
13 179 66 205 38 18 64 19 97 4 39 -18 47 -50 47 -190 0 -72 5 -139 10 -150
14 -26 56 -25 71 2 18 35 8 305 -14 349 -27 56 -95 85 -162 70z"/>
<path d="M3560 610 c-159 -29 -226 -244 -117 -376 71 -86 203 -98 276 -25 l21
21 0 -41 c0 -33 -6 -47 -34 -75 -29 -29 -41 -34 -83 -34 -28 0 -71 6 -97 14
-52 16 -71 13 -80 -11 -10 -25 23 -52 83 -69 108 -32 224 3 268 81 22 39 23
47 20 275 l-2 235 -23 3 c-29 4 -52 -14 -52 -41 l0 -20 -22 20 c-44 40 -97 55
-158 43z m106 -86 c55 -26 77 -73 72 -151 -4 -60 -7 -68 -41 -99 -30 -28 -44
-34 -82 -34 -62 0 -101 22 -126 72 -40 79 -13 173 62 210 42 22 71 23 115 2z"/>
<path d="M4843 609 c-35 -7 -82 -34 -99 -57 -9 -12 -12 -9 -17 15 -7 34 -36
48 -62 29 -13 -9 -15 -39 -13 -216 l3 -205 23 -3 c46 -7 52 11 52 149 0 70 4
139 10 153 12 33 66 66 107 66 19 0 43 -9 60 -24 l28 -24 3 -149 c2 -87 8
-153 14 -161 6 -7 23 -12 37 -10 l26 3 3 155 c2 87 -1 171 -7 191 -20 68 -90
105 -168 88z"/>
<path d="M5287 609 c-52 -8 -116 -56 -141 -104 -28 -54 -33 -153 -12 -210 35
-91 121 -142 226 -132 91 8 170 66 139 103 -16 19 -38 18 -74 -6 -40 -27 -119
-27 -162 0 -30 18 -63 65 -63 90 0 6 52 10 149 10 123 0 152 3 165 16 21 20
20 60 -3 109 -44 95 -127 141 -224 124z m87 -83 c37 -15 66 -50 66 -79 0 -16
-10 -17 -117 -15 -112 3 -118 4 -115 23 5 27 31 55 67 71 39 17 58 17 99 0z"/>
<path d="M5813 610 c-40 -9 -82 -36 -91 -58 -5 -14 -7 -13 -12 7 -3 13 -15 30
-27 38 -19 13 -24 12 -42 -6 -20 -20 -21 -32 -21 -202 0 -105 4 -188 10 -200
12 -21 50 -25 68 -7 8 8 12 54 12 142 0 112 3 136 20 163 25 42 51 55 106 51
35 -2 49 1 58 15 23 36 -24 69 -81 57z"/>
<path d="M6110 610 c-106 -19 -170 -104 -170 -225 0 -71 23 -126 71 -172 75
-70 181 -73 252 -5 l27 26 0 -35 c0 -43 -32 -97 -66 -109 -37 -14 -93 -12
-153 6 -59 17 -84 8 -79 -29 7 -46 150 -81 236 -58 55 15 119 73 132 120 7 22
10 120 8 250 -3 191 -5 215 -20 225 -23 14 -52 -3 -56 -33 l-3 -21 -32 24
c-39 30 -99 44 -147 36z m127 -101 c37 -35 53 -72 53 -124 0 -91 -51 -145
-135 -145 -85 0 -135 56 -135 150 0 60 40 123 90 143 31 13 101 -1 127 -24z"/>
<path d="M8029 610 c-53 -9 -100 -40 -134 -89 -28 -40 -30 -49 -30 -135 0 -86
2 -96 29 -134 70 -102 240 -123 328 -41 25 24 27 31 18 49 -14 25 -37 25 -75
0 -35 -23 -116 -27 -155 -7 -26 13 -70 71 -70 93 0 11 29 14 138 14 159 0 180
4 188 35 14 55 -47 163 -110 197 -31 17 -86 25 -127 18z m85 -84 c36 -15 66
-50 66 -78 0 -16 -12 -18 -121 -18 -120 0 -120 0 -113 23 9 31 34 58 69 73 39
17 58 17 99 0z"/>
<path d="M2739 593 c-10 -12 -15 -61 -17 -192 -4 -194 3 -231 41 -231 44 0 47
13 47 216 0 162 -3 195 -16 208 -20 20 -38 20 -55 -1z"/>
<path d="M6502 598 c-8 -8 -12 -61 -12 -170 0 -138 3 -164 20 -197 36 -71 127
-91 213 -47 l47 23 0 -24 c0 -38 -26 -79 -60 -93 -29 -12 -75 -10 -157 6 -25
5 -33 2 -43 -16 -32 -61 112 -103 221 -65 53 19 75 38 102 90 18 36 21 61 24
245 3 157 1 211 -9 230 -17 31 -40 36 -62 15 -13 -14 -16 -41 -16 -156 l0
-141 -29 -29 c-24 -23 -38 -29 -74 -29 -29 0 -53 7 -68 19 -23 18 -24 25 -27
172 -2 87 -8 159 -14 166 -13 16 -40 17 -56 1z"/>
<path d="M8336 595 c-9 -9 -16 -22 -16 -30 0 -7 29 -49 65 -94 36 -44 65 -85
65 -90 0 -5 -22 -36 -48 -68 -75 -91 -87 -110 -72 -128 31 -38 61 -16 165 123
9 11 23 -2 69 -62 59 -77 86 -92 114 -64 21 21 12 41 -53 123 -36 44 -65 83
-65 86 0 3 29 43 65 88 36 46 65 87 65 91 0 14 -30 40 -45 40 -8 0 -41 -36
-75 -80 l-61 -80 -62 78 c-66 81 -85 93 -111 67z"/>
<path d="M8776 595 c-14 -14 -16 -45 -16 -209 0 -203 3 -216 47 -216 16 0 27
8 33 26 15 39 12 354 -3 384 -15 30 -39 36 -61 15z"/>
<path d="M9482 598 c-9 -9 -12 -69 -12 -209 0 -211 3 -224 52 -217 l23 3 3
204 c2 142 -1 208 -9 217 -14 17 -41 18 -57 2z"/>
<path d="M9889 593 c-10 -12 -15 -61 -17 -192 -4 -194 3 -231 41 -231 44 0 47
13 47 216 0 162 -3 195 -16 208 -20 20 -38 20 -55 -1z"/>
<path d="M10405 593 c-14 -14 -16 -37 -13 -172 4 -174 13 -205 71 -242 44 -27
134 -22 178 10 17 13 33 20 36 17 13 -12 -19 -86 -45 -106 -23 -19 -36 -21
-87 -16 -33 3 -74 8 -92 12 -29 5 -33 3 -39 -20 -9 -36 8 -52 68 -66 112 -27
212 10 253 95 25 50 25 54 23 269 -3 196 -5 220 -20 230 -13 8 -23 8 -35 0
-15 -9 -19 -32 -23 -155 -6 -186 -19 -209 -114 -209 -36 0 -48 5 -65 26 -19
24 -21 40 -21 163 0 107 -3 141 -16 159 -18 26 -37 28 -59 5z"/>
</g>
</svg>
