<svg width="99" height="99" viewBox="0 0 99 99" fill="none" xmlns="http://www.w3.org/2000/svg">
<circle cx="49.5" cy="49.5" r="49.5" fill="white"/>
<path d="M64.9999 26C67.1216 26 69.1565 26.8429 70.6568 28.3431C72.1571 29.8434 72.9999 31.8783 72.9999 34C73.6531 34.0001 74.2835 34.2399 74.7716 34.6739C75.2597 35.1079 75.5715 35.706 75.6479 36.3547L75.6666 36.6667V42C75.6665 42.6532 75.4267 43.2836 74.9927 43.7717C74.5586 44.2598 73.9606 44.5716 73.3119 44.648L72.9999 44.6667V63.3333C72.9999 65.1547 72.0853 66.7653 70.6906 67.7253L70.3332 67.952V70C70.3327 71.0272 69.937 72.0149 69.2282 72.7584C68.5193 73.5018 67.5515 73.944 66.5255 73.9934C65.4994 74.0428 64.4937 73.6955 63.7167 73.0235C62.9397 72.3516 62.451 71.4064 62.3519 70.384L62.3332 70V68.6667H35.6666V70C35.6661 71.0272 35.2704 72.0149 34.5615 72.7584C33.8526 73.5018 32.8849 73.944 31.8588 73.9934C30.8328 74.0428 29.827 73.6955 29.05 73.0235C28.2731 72.3516 27.7844 71.4064 27.6853 70.384L27.6666 70V67.952C26.9219 67.5222 26.2922 66.9187 25.8311 66.1929C25.3701 65.4672 25.0913 64.6407 25.0186 63.784L24.9999 63.3333V44.6667C24.3468 44.6666 23.7164 44.4268 23.2283 43.9928C22.7402 43.5587 22.4283 42.9607 22.3519 42.312L22.3333 42V36.6667C22.3333 35.9594 22.6142 35.2811 23.1143 34.781C23.6144 34.281 24.2927 34 24.9999 34C24.9998 31.9594 25.7795 29.996 27.1793 28.5113C28.5792 27.0266 30.4935 26.133 32.5306 26.0133L32.9999 26H64.9999ZM67.6666 52.6667H30.3333V63.3333H67.6666V52.6667ZM38.3333 55.3333C39.0405 55.3333 39.7188 55.6143 40.2189 56.1144C40.719 56.6145 40.9999 57.2928 40.9999 58C40.9999 58.7072 40.719 59.3855 40.2189 59.8856C39.7188 60.3857 39.0405 60.6667 38.3333 60.6667H35.6666C34.9593 60.6667 34.2811 60.3857 33.781 59.8856C33.2809 59.3855 32.9999 58.7072 32.9999 58C32.9999 57.2928 33.2809 56.6145 33.781 56.1144C34.2811 55.6143 34.9593 55.3333 35.6666 55.3333H38.3333ZM62.3332 55.3333C63.0129 55.3341 63.6667 55.5943 64.1609 56.0609C64.6551 56.5275 64.9525 57.1652 64.9924 57.8437C65.0322 58.5222 64.8115 59.1903 64.3752 59.7116C63.939 60.2328 63.3202 60.5677 62.6453 60.648L62.3332 60.6667H59.6666C58.9869 60.6659 58.3332 60.4057 57.8389 59.9391C57.3447 59.4725 57.0473 58.8348 57.0075 58.1563C56.9676 57.4778 57.1884 56.8097 57.6246 56.2884C58.0609 55.7672 58.6797 55.4323 59.3546 55.352L59.6666 55.3333H62.3332ZM42.0186 31.3333H32.9999C32.2927 31.3333 31.6144 31.6143 31.1143 32.1144C30.6142 32.6145 30.3333 33.2928 30.3333 34V47.3333H67.6666V34C67.6666 33.2928 67.3856 32.6145 66.8855 32.1144C66.3854 31.6143 65.7072 31.3333 64.9999 31.3333H61.3146L56.7173 40.5253C56.5675 40.8495 56.3541 41.1404 56.0898 41.3805C55.8255 41.6207 55.5157 41.8054 55.1787 41.9235C54.8416 42.0417 54.4843 42.0909 54.1279 42.0684C53.7715 42.0458 53.4233 41.9519 53.1038 41.7922C52.7844 41.6325 52.5003 41.4102 52.2684 41.1386C52.0365 40.867 51.8615 40.5516 51.7538 40.2111C51.6462 39.8706 51.608 39.5119 51.6415 39.1564C51.6751 38.8009 51.7797 38.4557 51.9492 38.1413L55.3519 31.3333H47.9813L43.3839 40.5253C43.055 41.1353 42.5016 41.5932 41.8408 41.8022C41.1801 42.0111 40.464 41.9547 39.8442 41.6448C39.2244 41.3349 38.7496 40.7958 38.5203 40.1419C38.291 39.4879 38.3253 38.7704 38.6159 38.1413L42.0186 31.3333Z" fill="black"/>
</svg>
