<svg width="99" height="99" viewBox="0 0 99 99" fill="none" xmlns="http://www.w3.org/2000/svg">
<circle cx="49.5" cy="49.5" r="49.5" fill="white"/>
<path d="M21 50C21 42.3087 24.0553 34.9325 29.4939 29.4939C34.9325 24.0553 42.3087 21 50 21C57.6913 21 65.0675 24.0553 70.5061 29.4939C75.9447 34.9325 79 42.3087 79 50C79 57.6913 75.9447 65.0675 70.5061 70.5061C65.0675 75.9447 57.6913 79 50 79C42.3087 79 34.9325 75.9447 29.4939 70.5061C24.0553 65.0675 21 57.6913 21 50ZM50 26.4375C43.7508 26.4375 37.7576 28.92 33.3388 33.3388C28.92 37.7576 26.4375 43.7508 26.4375 50C26.4375 56.2492 28.92 62.2424 33.3388 66.6612C37.7576 71.08 43.7508 73.5625 50 73.5625C56.2492 73.5625 62.2424 71.08 66.6612 66.6612C71.08 62.2424 73.5625 56.2492 73.5625 50C73.5625 43.7508 71.08 37.7576 66.6612 33.3388C62.2424 28.92 56.2492 26.4375 50 26.4375ZM46.085 43.0581C45.7629 43.7032 45.2014 44.194 44.5175 44.4224C43.8336 44.6508 43.087 44.5982 42.4419 44.2761C41.7968 43.9541 41.306 43.3889 41.0776 42.705C40.8492 42.0211 40.9018 41.2745 41.2239 40.6294C41.8365 39.4005 42.8044 38.0883 44.3015 37.0878C45.8131 36.08 47.7126 35.5 50 35.5C52.1302 35.4865 54.2091 36.1532 55.9341 37.4031C57.7575 38.7698 59.0625 40.9013 59.0625 43.6562C59.0625 45.2803 58.6456 46.665 57.8699 47.825C57.1267 48.9379 56.1661 49.6846 55.3614 50.2248C54.9663 50.4858 54.5639 50.725 54.2268 50.9316L54.205 50.9461C53.886 51.1314 53.5717 51.3248 53.2625 51.5261C52.8768 51.7575 52.5375 52.0587 52.262 52.4143C51.8584 53.0055 51.2378 53.4137 50.5351 53.5502C49.8324 53.6868 49.1041 53.5406 48.5085 53.1435C47.9128 52.7464 47.4979 52.1304 47.3536 51.4292C47.2093 50.728 47.3475 49.9982 47.738 49.3983C48.405 48.4412 49.2605 47.6256 50.2465 47.0021C50.6187 46.7605 50.9969 46.5248 51.3811 46.2952L51.4065 46.2808C51.769 46.0596 52.0662 45.882 52.3417 45.6971C52.7288 45.4661 53.0693 45.1649 53.3459 44.809C53.48 44.6132 53.625 44.2979 53.625 43.6562C53.6394 43.2848 53.56 42.9156 53.394 42.583C53.228 42.2504 52.9808 41.9649 52.6752 41.7531C51.8897 41.2104 50.9548 40.9254 50 40.9375C48.6624 40.9375 47.8431 41.2638 47.3175 41.6154C46.7859 41.9783 46.3604 42.4763 46.085 43.0581ZM53.625 60.875C53.625 61.8364 53.2431 62.7584 52.5633 63.4383C51.8834 64.1181 50.9614 64.5 50 64.5C49.0386 64.5 48.1166 64.1181 47.4367 63.4383C46.7569 62.7584 46.375 61.8364 46.375 60.875C46.375 59.9136 46.7569 58.9916 47.4367 58.3117C48.1166 57.6319 49.0386 57.25 50 57.25C50.9614 57.25 51.8834 57.6319 52.5633 58.3117C53.2431 58.9916 53.625 59.9136 53.625 60.875Z" fill="black"/>
</svg>
