<svg width="58" height="58" viewBox="0 0 58 58" fill="none" xmlns="http://www.w3.org/2000/svg">
<path d="M0 29C0 21.3087 3.05535 13.9325 8.4939 8.4939C13.9325 3.05535 21.3087 0 29 0C36.6913 0 44.0675 3.05535 49.5061 8.4939C54.9447 13.9325 58 21.3087 58 29C58 36.6913 54.9447 44.0675 49.5061 49.5061C44.0675 54.9447 36.6913 58 29 58C21.3087 58 13.9325 54.9447 8.4939 49.5061C3.05535 44.0675 0 36.6913 0 29ZM29 5.4375C22.7508 5.4375 16.7576 7.91997 12.3388 12.3388C7.91997 16.7576 5.4375 22.7508 5.4375 29C5.4375 35.2492 7.91997 41.2424 12.3388 45.6612C16.7576 50.08 22.7508 52.5625 29 52.5625C35.2492 52.5625 41.2424 50.08 45.6612 45.6612C50.08 41.2424 52.5625 35.2492 52.5625 29C52.5625 22.7508 50.08 16.7576 45.6612 12.3388C41.2424 7.91997 35.2492 5.4375 29 5.4375ZM25.085 22.0581C24.7629 22.7032 24.2014 23.194 23.5175 23.4224C22.8336 23.6508 22.087 23.5982 21.4419 23.2761C20.7968 22.9541 20.306 22.3889 20.0776 21.705C19.8492 21.0211 19.9018 20.2745 20.2239 19.6294C20.8365 18.4005 21.8044 17.0883 23.3015 16.0878C24.8131 15.08 26.7126 14.5 29 14.5C31.1302 14.4865 33.2091 15.1532 34.9341 16.4031C36.7575 17.7698 38.0625 19.9013 38.0625 22.6562C38.0625 24.2803 37.6456 25.665 36.8699 26.825C36.1267 27.9379 35.1661 28.6846 34.3614 29.2248C33.9663 29.4858 33.5639 29.725 33.2268 29.9316L33.205 29.9461C32.886 30.1314 32.5717 30.3248 32.2625 30.5261C31.8768 30.7575 31.5375 31.0587 31.262 31.4143C30.8584 32.0055 30.2378 32.4137 29.5351 32.5502C28.8324 32.6868 28.1041 32.5406 27.5085 32.1435C26.9128 31.7464 26.4979 31.1304 26.3536 30.4292C26.2093 29.728 26.3475 28.9982 26.738 28.3983C27.405 27.4412 28.2605 26.6256 29.2465 26.0021C29.6187 25.7605 29.9969 25.5248 30.3811 25.2952L30.4065 25.2808C30.769 25.0596 31.0662 24.882 31.3417 24.6971C31.7288 24.4661 32.0693 24.1649 32.3459 23.809C32.48 23.6132 32.625 23.2979 32.625 22.6562C32.6394 22.2848 32.56 21.9156 32.394 21.583C32.228 21.2504 31.9808 20.9649 31.6752 20.7531C30.8897 20.2104 29.9548 19.9254 29 19.9375C27.6624 19.9375 26.8431 20.2638 26.3175 20.6154C25.7859 20.9783 25.3604 21.4763 25.085 22.0581ZM32.625 39.875C32.625 40.8364 32.2431 41.7584 31.5633 42.4383C30.8834 43.1181 29.9614 43.5 29 43.5C28.0386 43.5 27.1166 43.1181 26.4367 42.4383C25.7569 41.7584 25.375 40.8364 25.375 39.875C25.375 38.9136 25.7569 37.9916 26.4367 37.3117C27.1166 36.6319 28.0386 36.25 29 36.25C29.9614 36.25 30.8834 36.6319 31.5633 37.3117C32.2431 37.9916 32.625 38.9136 32.625 39.875Z" fill="black"/>
</svg>