<svg width="95" height="98" viewBox="0 0 95 98" fill="none" xmlns="http://www.w3.org/2000/svg">
<path fill-rule="evenodd" clip-rule="evenodd" d="M46.7324 97.3272L47.5 97.3335C46.4606 97.3333 45.4214 97.2986 44.3841 97.2293C43.1005 97.143 41.8208 97.0032 40.5483 96.8101C39.07 96.5854 37.6029 96.2884 36.1521 95.9202C34.722 95.5569 33.3094 95.1244 31.919 94.6243L31.9113 94.6213C29.6217 93.7969 27.398 92.791 25.2604 91.6126C23.7433 90.7764 22.2721 89.8553 20.8534 88.8535C19.2581 87.7274 17.7317 86.5016 16.2829 85.1832C15.7767 84.7226 15.2801 84.2511 14.7936 83.7687C5.92903 74.979 0.416748 62.6504 0.416748 49C0.416748 22.3064 21.4968 0.666748 47.5 0.666748C53.6831 0.666718 59.8056 1.91687 65.5181 4.34583C71.2305 6.77479 76.4209 10.335 80.7931 14.8232C85.1652 19.3113 88.6333 24.6395 90.9995 30.5036C93.3657 36.3677 94.5835 42.6528 94.5835 49C94.5835 62.6509 89.0708 74.9799 80.206 83.7692C80.2057 83.7698 80.2057 83.7707 80.206 83.7719C77.9759 85.9817 75.5399 87.9613 72.933 89.6825L72.8966 89.7063C72.3054 90.0962 71.7057 90.4721 71.0978 90.8339L71.0336 90.8724C69.9702 91.5032 68.8832 92.0912 67.7751 92.635C67.3414 92.8472 66.9047 93.0529 66.4653 93.2522C66.0068 93.4591 65.5453 93.6589 65.081 93.8515C64.6308 94.0371 64.1779 94.216 63.7226 94.388C63.2623 94.5609 62.7995 94.7269 62.3344 94.8857C61.8771 95.041 61.4176 95.1893 60.9561 95.3307C60.4671 95.4799 59.9758 95.6211 59.4824 95.7544C59.0023 95.8834 58.5202 96.0049 58.0364 96.1187C57.5536 96.2317 57.0692 96.3371 56.5833 96.4347C54.6025 96.8322 52.5989 97.0982 50.5848 97.2313C50.0842 97.2646 49.5831 97.2897 49.0818 97.3068L49.0721 97.307C48.2925 97.3333 47.5123 97.34 46.7324 97.3272ZM52.2085 68.3335H42.7918C35.2916 68.3335 28.7321 72.8641 25.7166 79.4885L25.3756 80.291L25.6707 80.5151C31.0373 84.4391 37.449 86.9551 44.3938 87.5372C44.6012 87.5545 44.8089 87.5702 45.0171 87.5841L44.4225 87.5394C44.6248 87.5563 44.8276 87.5715 45.0308 87.585L45.0171 87.5841C45.2184 87.5977 45.42 87.6095 45.6218 87.6196L45.0308 87.585C45.2405 87.599 45.4507 87.6112 45.6616 87.6214L45.6218 87.6196C45.7732 87.6272 45.9246 87.6338 46.076 87.6396L47.5 87.6668L48.0904 87.6622C48.3075 87.6588 48.5245 87.6535 48.7415 87.6464L48.1456 87.6611C48.3464 87.6578 48.5469 87.6527 48.747 87.6459L48.7415 87.6461C48.9432 87.6395 49.1446 87.6312 49.3458 87.6212L48.747 87.6459C48.9544 87.6388 49.1618 87.6303 49.3691 87.6199L49.3458 87.6212C49.5553 87.6106 49.7642 87.5986 49.9726 87.585L49.3691 87.6199C49.5732 87.6097 49.777 87.5979 49.9805 87.5843L49.9728 87.5847C50.1767 87.5711 50.3802 87.556 50.5832 87.5392L49.9803 87.5843C50.1877 87.5704 50.395 87.5548 50.602 87.5376L50.5832 87.5392C50.7804 87.5226 50.9771 87.5046 51.1734 87.4853L50.602 87.5376C50.808 87.5204 51.0135 87.5013 51.2186 87.4808L51.1734 87.4853C57.8863 86.8183 64.0837 84.3424 69.2973 80.5384L69.6198 80.291L69.2839 79.4894C66.4004 73.1529 60.2732 68.7313 53.1814 68.3589L52.2085 68.3335ZM47.5 10.3335C26.6974 10.3335 9.83349 27.6451 9.83349 49C9.83349 58.222 12.9783 66.69 18.2271 73.3351C23.0887 64.5735 32.2682 58.6668 42.7918 58.6668H52.2085C62.7323 58.6668 71.912 64.5739 76.7728 73.3344C82.0217 66.69 85.1668 58.222 85.1668 49C85.1668 27.6451 68.3028 10.3335 47.5 10.3335ZM47.5 15.1667C57.9015 15.1667 66.3335 23.8226 66.3335 34.5C66.3335 44.8539 58.4047 53.307 48.44 53.8099L47.5 53.8335C37.0987 53.8335 28.6668 45.1777 28.6668 34.5C28.6668 24.1461 36.5955 15.6931 46.56 15.1903L47.5 15.1667ZM47.5 24.8335C42.2994 24.8335 38.0835 29.1613 38.0835 34.5C38.0835 39.8387 42.2994 44.1668 47.5 44.1668C52.7007 44.1668 56.9168 39.8387 56.9168 34.5C56.9168 29.1613 52.7007 24.8335 47.5 24.8335Z" fill="#171717"/>
</svg>