<svg width="61" height="43" viewBox="0 0 61 43" fill="none" xmlns="http://www.w3.org/2000/svg">
<path d="M4.75029 42.9583L26.2086 42.9583C27.3468 42.9583 28.4384 42.5062 29.2433 41.7013C30.0481 40.8965 30.5003 39.8049 30.5003 38.6666C30.5003 37.5284 30.0481 36.4368 29.2433 35.632C28.4384 34.8271 27.3468 34.375 26.2086 34.375L4.75029 34.375C3.61206 34.375 2.52046 34.8271 1.71562 35.632C0.910775 36.4368 0.458618 37.5284 0.458618 38.6666C0.458618 39.8049 0.910775 40.8965 1.71562 41.7013C2.52046 42.5062 3.61206 42.9583 4.75029 42.9583ZM34.792 8.62497L56.2503 8.62497C57.3885 8.62497 58.4801 8.17282 59.285 7.36797C60.0898 6.56313 60.542 5.47153 60.542 4.3333C60.542 3.19508 60.0898 2.10348 59.285 1.29864C58.4801 0.493796 57.3885 0.0416361 56.2503 0.0416361L34.792 0.0416361C33.6537 0.0416361 32.5621 0.493796 31.7573 1.29864C30.9524 2.10348 30.5003 3.19508 30.5003 4.3333C30.5003 5.47153 30.9524 6.56313 31.7573 7.36797C32.5621 8.17282 33.6537 8.62497 34.792 8.62497ZM4.75029 25.7916L56.2503 25.7916C57.3885 25.7916 58.4801 25.3395 59.285 24.5346C60.0898 23.7298 60.542 22.6382 60.542 21.5C60.542 20.3618 60.0898 19.2702 59.285 18.4653C58.4801 17.6605 57.3885 17.2083 56.2503 17.2083L4.75029 17.2083C3.61206 17.2083 2.52046 17.6605 1.71562 18.4653C0.910775 19.2702 0.458618 20.3618 0.458618 21.5C0.458618 22.6382 0.910775 23.7298 1.71562 24.5346C2.52046 25.3395 3.61206 25.7916 4.75029 25.7916Z" fill="black"/>
</svg>
