<svg width="99" height="99" viewBox="0 0 99 99" fill="none" xmlns="http://www.w3.org/2000/svg">
<circle cx="49.5" cy="49.5" r="49.5" fill="white"/>
<path d="M28 65.3334C26.7167 65.3334 25.6185 64.8768 24.7054 63.9637C23.7923 63.0506 23.3349 61.9516 23.3334 60.6667V37.3334C23.3334 36.05 23.7907 34.9518 24.7054 34.0387C25.62 33.1256 26.7183 32.6682 28 32.6667H51.3334C52.6167 32.6667 53.7157 33.124 54.6304 34.0387C55.545 34.9534 56.0016 36.0516 56 37.3334V60.6667C56 61.95 55.5435 63.049 54.6304 63.9637C53.7173 64.8784 52.6183 65.3349 51.3334 65.3334H28ZM28 60.6667H51.3334V37.3334H28V60.6667ZM60.6667 65.3334V32.6667H65.3334V65.3334H60.6667ZM70 65.3334V32.6667H74.6667V65.3334H70Z" fill="black"/>
</svg>
