<svg width="99" height="99" viewBox="0 0 99 99" fill="none" xmlns="http://www.w3.org/2000/svg">
<circle cx="49.5" cy="49.5" r="49.5" fill="white"/>
<path fill-rule="evenodd" clip-rule="evenodd" d="M50.5 21.5834C65.9184 21.5834 78.4167 34.0817 78.4167 49.5C78.4167 64.9184 65.9184 77.4167 50.5 77.4167C35.0817 77.4167 22.5834 64.9184 22.5834 49.5C22.5834 34.0817 35.0817 21.5834 50.5 21.5834ZM50.5 27.1667C44.5769 27.1667 38.8963 29.5197 34.708 33.708C30.5197 37.8963 28.1667 43.5769 28.1667 49.5C28.1667 55.4232 30.5197 61.1038 34.708 65.2921C38.8963 69.4804 44.5769 71.8334 50.5 71.8334C56.4232 71.8334 62.1038 69.4804 66.2921 65.2921C70.4804 61.1038 72.8334 55.4232 72.8334 49.5C72.8334 43.5769 70.4804 37.8963 66.2921 33.708C62.1038 29.5197 56.4232 27.1667 50.5 27.1667ZM54.6875 35.5417C57.2349 35.538 59.6831 36.5293 61.5102 38.3044C63.3373 40.0795 64.3989 42.498 64.4688 45.0444C64.5387 47.5909 63.6113 50.0639 61.8843 51.9366C60.1574 53.8092 57.7673 54.9333 55.2235 55.0694L54.6875 55.0834H47.7084V60.6667C47.7076 61.3782 47.4351 62.0626 46.9467 62.58C46.4582 63.0974 45.7906 63.4088 45.0803 63.4505C44.37 63.4922 43.6706 63.2611 43.1249 62.8044C42.5793 62.3477 42.2286 61.6999 42.1446 60.9933L42.125 60.6667V41.125C42.1246 39.7164 42.6566 38.3597 43.6144 37.3268C44.5722 36.294 45.885 35.6613 47.2896 35.5556L47.7084 35.5417H54.6875ZM54.6875 41.125H47.7084V49.5H54.6875C55.7629 49.4995 56.7969 49.0852 57.5752 48.3431C58.3535 47.601 58.8164 46.5879 58.8681 45.5138C58.9198 44.4396 58.5563 43.3867 57.8528 42.5733C57.1493 41.7599 56.1599 41.2483 55.0895 41.1446L54.6875 41.125Z" fill="black"/>
</svg>
