<svg width="99" height="99" viewBox="0 0 99 99" fill="none" xmlns="http://www.w3.org/2000/svg">
<path d="M49 28.6667C48.2928 28.6667 47.6145 28.9476 47.1144 29.4477C46.6143 29.9478 46.3333 30.6261 46.3333 31.3333C46.3333 35.8453 40.8773 38.1067 37.6853 34.9147C37.4393 34.66 37.1451 34.4568 36.8197 34.3171C36.4944 34.1773 36.1445 34.1037 35.7904 34.1007C35.4363 34.0976 35.0852 34.1651 34.7575 34.2991C34.4297 34.4332 34.132 34.6312 33.8816 34.8816C33.6312 35.132 33.4332 35.4297 33.2991 35.7575C33.1651 36.0852 33.0976 36.4363 33.1007 36.7904C33.1037 37.1445 33.1773 37.4944 33.3171 37.8197C33.4568 38.1451 33.66 38.4393 33.9147 38.6853C37.1067 41.8773 34.848 47.3333 30.3333 47.3333C29.6261 47.3333 28.9478 47.6143 28.4477 48.1144C27.9476 48.6145 27.6667 49.2928 27.6667 50C27.6667 50.7072 27.9476 51.3855 28.4477 51.8856C28.9478 52.3857 29.6261 52.6667 30.3333 52.6667C34.8453 52.6667 37.1067 58.1227 33.9147 61.3147C33.4289 61.8176 33.1601 62.4912 33.1662 63.1904C33.1723 63.8896 33.4527 64.5584 33.9471 65.0528C34.4416 65.5473 35.1104 65.8277 35.8096 65.8338C36.5088 65.8399 37.1824 65.5711 37.6853 65.0853C40.8773 61.8933 46.3333 64.152 46.3333 68.6667C46.3333 69.3739 46.6143 70.0522 47.1144 70.5523C47.6145 71.0524 48.2928 71.3333 49 71.3333C49.7072 71.3333 50.3855 71.0524 50.8856 70.5523C51.3857 70.0522 51.6667 69.3739 51.6667 68.6667C51.6667 64.1547 57.1227 61.8933 60.3147 65.0853C60.5607 65.34 60.8549 65.5432 61.1803 65.6829C61.5056 65.8227 61.8555 65.8963 62.2096 65.8993C62.5637 65.9024 62.9148 65.8349 63.2425 65.7009C63.5703 65.5668 63.868 65.3688 64.1184 65.1184C64.3688 64.868 64.5668 64.5703 64.7009 64.2425C64.8349 63.9148 64.9024 63.5637 64.8993 63.2096C64.8963 62.8555 64.8227 62.5056 64.6829 62.1803C64.5432 61.8549 64.34 61.5607 64.0853 61.3147C60.8933 58.1227 63.152 52.6667 67.6667 52.6667C68.3739 52.6667 69.0522 52.3857 69.5523 51.8856C70.0524 51.3855 70.3333 50.7072 70.3333 50C70.3333 49.2928 70.0524 48.6145 69.5523 48.1144C69.0522 47.6143 68.3739 47.3333 67.6667 47.3333C63.1547 47.3333 60.8933 41.8773 64.0853 38.6853C64.5711 38.1824 64.8399 37.5088 64.8338 36.8096C64.8277 36.1104 64.5473 35.4416 64.0528 34.9471C63.5584 34.4527 62.8896 34.1723 62.1904 34.1662C61.4912 34.1601 60.8176 34.4289 60.3147 34.9147C57.1227 38.1067 51.6667 35.848 51.6667 31.3333C51.6667 30.6261 51.3857 29.9478 50.8856 29.4477C50.3855 28.9476 49.7072 28.6667 49 28.6667ZM41.0213 30.7387C41.1688 28.7234 42.0734 26.8386 43.5535 25.4629C45.0335 24.0872 46.9793 23.3225 49 23.3225C51.0207 23.3225 52.9665 24.0872 54.4465 25.4629C55.9266 26.8386 56.8312 28.7234 56.9787 30.7387C58.5088 29.4245 60.4789 28.7368 62.4945 28.8133C64.5101 28.8899 66.4224 29.725 67.8485 31.1514C69.2746 32.5778 70.1092 34.4903 70.1853 36.5059C70.2613 38.5215 69.5732 40.4915 68.2587 42.0213C70.274 42.1685 72.1589 43.0728 73.5349 44.5526C74.9108 46.0324 75.6758 47.9781 75.6761 49.9988C75.6765 52.0194 74.9122 53.9654 73.5367 55.4456C72.1612 56.9259 70.2766 57.8309 68.2613 57.9787C69.5755 59.5088 70.2632 61.4789 70.1866 63.4945C70.1101 65.5101 69.275 67.4224 67.8486 68.8485C66.4222 70.2746 64.5097 71.1092 62.4941 71.1853C60.4785 71.2613 58.5085 70.5732 56.9787 69.2587C56.8312 71.2739 55.9266 73.1588 54.4465 74.5345C52.9665 75.9102 51.0207 76.6748 49 76.6748C46.9793 76.6748 45.0335 75.9102 43.5535 74.5345C42.0734 73.1588 41.1688 71.2739 41.0213 69.2587C39.4915 70.5732 37.5215 71.2613 35.5059 71.1853C33.4903 71.1092 31.5778 70.2746 30.1514 68.8485C28.725 67.4224 27.8899 65.5101 27.8133 63.4945C27.7368 61.4789 28.4245 59.5088 29.7387 57.9787C27.7234 57.8312 25.8386 56.9266 24.4629 55.4465C23.0872 53.9665 22.3225 52.0207 22.3225 50C22.3225 47.9793 23.0872 46.0335 24.4629 44.5535C25.8386 43.0734 27.7234 42.1688 29.7387 42.0213C28.4205 40.4918 27.7295 38.5203 27.8042 36.5024C27.879 34.4846 28.7141 32.5697 30.1419 31.1419C31.5697 29.7141 33.4846 28.879 35.5024 28.8042C37.5203 28.7295 39.4918 29.4205 41.0213 30.7387Z" fill="black"/>
<path d="M48.9999 44.6667C47.5855 44.6667 46.2289 45.2286 45.2287 46.2288C44.2285 47.229 43.6666 48.5855 43.6666 50C43.6666 51.4145 44.2285 52.7711 45.2287 53.7712C46.2289 54.7714 47.5855 55.3333 48.9999 55.3333C50.4144 55.3333 51.771 54.7714 52.7712 53.7712C53.7714 52.7711 54.3333 51.4145 54.3333 50C54.3333 48.5855 53.7714 47.229 52.7712 46.2288C51.771 45.2286 50.4144 44.6667 48.9999 44.6667ZM41.4586 42.4587C42.4426 41.4399 43.6196 40.6273 44.921 40.0683C46.2223 39.5092 47.622 39.215 49.0383 39.2027C50.4546 39.1904 51.8592 39.4603 53.1701 39.9966C54.481 40.5329 55.672 41.3249 56.6735 42.3265C57.675 43.328 58.4671 44.5189 59.0034 45.8298C59.5397 47.1407 59.8096 48.5453 59.7973 49.9616C59.785 51.3779 59.4907 52.7776 58.9317 54.079C58.3727 55.3804 57.5601 56.5574 56.5413 57.5413C54.5295 59.4844 51.8351 60.5595 49.0383 60.5352C46.2416 60.5109 43.5662 59.3891 41.5886 57.4114C39.6109 55.4337 38.4891 52.7584 38.4648 49.9616C38.4405 47.1649 39.5156 44.4704 41.4586 42.4587Z" fill="black"/>
</svg>
