<svg width="64" height="64" viewBox="0 0 64 64" fill="none" xmlns="http://www.w3.org/2000/svg">
<path d="M32 10.6667C31.2928 10.6667 30.6145 10.9476 30.1144 11.4477C29.6143 11.9478 29.3333 12.6261 29.3333 13.3333C29.3333 17.8453 23.8773 20.1067 20.6853 16.9147C20.4393 16.66 20.1451 16.4568 19.8197 16.3171C19.4944 16.1773 19.1445 16.1037 18.7904 16.1007C18.4363 16.0976 18.0852 16.1651 17.7575 16.2991C17.4297 16.4332 17.132 16.6312 16.8816 16.8816C16.6312 17.132 16.4332 17.4297 16.2991 17.7575C16.1651 18.0852 16.0976 18.4363 16.1007 18.7904C16.1037 19.1445 16.1773 19.4944 16.3171 19.8197C16.4568 20.1451 16.66 20.4393 16.9147 20.6853C20.1067 23.8773 17.848 29.3333 13.3333 29.3333C12.6261 29.3333 11.9478 29.6143 11.4477 30.1144C10.9476 30.6145 10.6667 31.2928 10.6667 32C10.6667 32.7072 10.9476 33.3855 11.4477 33.8856C11.9478 34.3857 12.6261 34.6667 13.3333 34.6667C17.8453 34.6667 20.1067 40.1227 16.9147 43.3147C16.4289 43.8176 16.1601 44.4912 16.1662 45.1904C16.1723 45.8896 16.4527 46.5584 16.9471 47.0528C17.4416 47.5473 18.1104 47.8277 18.8096 47.8338C19.5088 47.8399 20.1824 47.5711 20.6853 47.0853C23.8773 43.8933 29.3333 46.152 29.3333 50.6667C29.3333 51.3739 29.6143 52.0522 30.1144 52.5523C30.6145 53.0524 31.2928 53.3333 32 53.3333C32.7072 53.3333 33.3855 53.0524 33.8856 52.5523C34.3857 52.0522 34.6667 51.3739 34.6667 50.6667C34.6667 46.1547 40.1227 43.8933 43.3147 47.0853C43.5607 47.34 43.8549 47.5432 44.1803 47.6829C44.5056 47.8227 44.8555 47.8963 45.2096 47.8993C45.5637 47.9024 45.9148 47.8349 46.2425 47.7009C46.5703 47.5668 46.868 47.3688 47.1184 47.1184C47.3688 46.868 47.5668 46.5703 47.7009 46.2425C47.8349 45.9148 47.9024 45.5637 47.8993 45.2096C47.8963 44.8555 47.8227 44.5056 47.6829 44.1803C47.5432 43.8549 47.34 43.5607 47.0853 43.3147C43.8933 40.1227 46.152 34.6667 50.6667 34.6667C51.3739 34.6667 52.0522 34.3857 52.5523 33.8856C53.0524 33.3855 53.3333 32.7072 53.3333 32C53.3333 31.2928 53.0524 30.6145 52.5523 30.1144C52.0522 29.6143 51.3739 29.3333 50.6667 29.3333C46.1547 29.3333 43.8933 23.8773 47.0853 20.6853C47.5711 20.1824 47.8399 19.5088 47.8338 18.8096C47.8277 18.1104 47.5473 17.4416 47.0528 16.9471C46.5584 16.4527 45.8896 16.1723 45.1904 16.1662C44.4912 16.1601 43.8176 16.4289 43.3147 16.9147C40.1227 20.1067 34.6667 17.848 34.6667 13.3333C34.6667 12.6261 34.3857 11.9478 33.8856 11.4477C33.3855 10.9476 32.7072 10.6667 32 10.6667ZM24.0213 12.7387C24.1688 10.7234 25.0734 8.83857 26.5535 7.46287C28.0335 6.08717 29.9793 5.32251 32 5.32251C34.0207 5.32251 35.9665 6.08717 37.4465 7.46287C38.9266 8.83857 39.8312 10.7234 39.9787 12.7387C41.5088 11.4245 43.4789 10.7368 45.4945 10.8133C47.5101 10.8899 49.4224 11.725 50.8485 13.1514C52.2746 14.5778 53.1092 16.4903 53.1853 18.5059C53.2613 20.5215 52.5732 22.4915 51.2587 24.0213C53.274 24.1685 55.1589 25.0728 56.5349 26.5526C57.9108 28.0324 58.6758 29.9781 58.6761 31.9988C58.6765 34.0194 57.9122 35.9654 56.5367 37.4456C55.1612 38.9259 53.2766 39.8309 51.2613 39.9787C52.5755 41.5088 53.2632 43.4789 53.1866 45.4945C53.1101 47.5101 52.275 49.4224 50.8486 50.8485C49.4222 52.2746 47.5097 53.1092 45.4941 53.1853C43.4785 53.2613 41.5085 52.5732 39.9787 51.2587C39.8312 53.2739 38.9266 55.1588 37.4465 56.5345C35.9665 57.9102 34.0207 58.6748 32 58.6748C29.9793 58.6748 28.0335 57.9102 26.5535 56.5345C25.0734 55.1588 24.1688 53.2739 24.0213 51.2587C22.4915 52.5732 20.5215 53.2613 18.5059 53.1853C16.4903 53.1092 14.5778 52.2746 13.1514 50.8485C11.725 49.4224 10.8899 47.5101 10.8133 45.4945C10.7368 43.4789 11.4245 41.5088 12.7387 39.9787C10.7234 39.8312 8.83857 38.9266 7.46287 37.4465C6.08717 35.9665 5.32251 34.0207 5.32251 32C5.32251 29.9793 6.08717 28.0335 7.46287 26.5535C8.83857 25.0734 10.7234 24.1688 12.7387 24.0213C11.4205 22.4918 10.7295 20.5203 10.8042 18.5024C10.879 16.4846 11.7141 14.5697 13.1419 13.1419C14.5697 11.7141 16.4846 10.879 18.5024 10.8042C20.5203 10.7295 22.4918 11.4205 24.0213 12.7387Z" fill="black"/>
<path d="M31.9999 26.6667C30.5855 26.6667 29.2289 27.2286 28.2287 28.2288C27.2285 29.229 26.6666 30.5855 26.6666 32C26.6666 33.4145 27.2285 34.7711 28.2287 35.7712C29.2289 36.7714 30.5855 37.3333 31.9999 37.3333C33.4144 37.3333 34.771 36.7714 35.7712 35.7712C36.7714 34.7711 37.3333 33.4145 37.3333 32C37.3333 30.5855 36.7714 29.229 35.7712 28.2288C34.771 27.2286 33.4144 26.6667 31.9999 26.6667ZM24.4586 24.4587C25.4426 23.4399 26.6196 22.6273 27.921 22.0683C29.2223 21.5092 30.622 21.215 32.0383 21.2027C33.4546 21.1904 34.8592 21.4603 36.1701 21.9966C37.481 22.5329 38.672 23.3249 39.6735 24.3265C40.675 25.328 41.4671 26.5189 42.0034 27.8298C42.5397 29.1407 42.8096 30.5453 42.7973 31.9616C42.785 33.3779 42.4907 34.7776 41.9317 36.079C41.3727 37.3804 40.5601 38.5574 39.5413 39.5413C37.5295 41.4844 34.8351 42.5595 32.0383 42.5352C29.2416 42.5109 26.5662 41.3891 24.5886 39.4114C22.6109 37.4337 21.4891 34.7584 21.4648 31.9616C21.4405 29.1649 22.5156 26.4704 24.4586 24.4587Z" fill="black"/>
</svg>